<svg width="16" height="20" viewBox="0 0 16 20" fill="none" xmlns="http://www.w3.org/2000/svg">
<path d="M14.7917 1.29167C15.2271 1.72708 15.25 2.04792 15.25 10C15.25 17.9521 15.2271 18.2729 14.7917 18.7083C14.3562 19.1438 14.0354 19.1667 7.91667 19.1667C-0.0125008 19.1667 0.583333 19.4646 0.583333 15.5V12.75H1.5H2.41667V15.0417V17.3333H7.91667H13.4167V10V2.66667H7.91667H2.41667V4.95833V7.25H1.5H0.583333V4.5C0.583333 0.535418 -0.0125008 0.833334 7.91667 0.833334C14.0354 0.833334 14.3562 0.856251 14.7917 1.29167Z" fill="#2D2D2D"/>
<path d="M9.89987 8.16667C11.0228 9.0375 11.9853 9.83958 12.0311 9.95417C12.077 10.1375 7.90612 13.4375 7.6082 13.4375C7.53945 13.4375 7.49362 12.8646 7.49362 12.1771V10.9167H3.82695H0.160286V10V9.08333H3.82695H7.49362V7.82292C7.49362 7.13542 7.56237 6.5625 7.65404 6.58542C7.76862 6.58542 8.75404 7.29583 9.89987 8.16667Z" fill="#2D2D2D"/>
</svg>
