<svg width="252" height="32" viewBox="0 0 252 32" fill="none" xmlns="http://www.w3.org/2000/svg">
<path fill-rule="evenodd" clip-rule="evenodd" d="M216.564 23.7664C214.815 23.7664 213.215 25.3697 213.215 27.5744C213.215 29.9293 214.765 31.4325 216.514 31.3824C218.563 31.3824 219.913 29.9293 219.913 27.5744C219.913 25.2194 218.413 23.7664 216.564 23.7664Z" fill="#3A3A3A"/>
<path fill-rule="evenodd" clip-rule="evenodd" d="M3.09859 0.767944C1.54921 0.767944 0.0997818 2.02058 0.199742 3.92459C0.0997818 5.77849 1.39927 7.03112 2.99863 7.03112C4.79792 7.03112 6.14738 5.72838 6.04742 3.87448C6.04742 1.92037 4.74794 0.767944 3.09859 0.767944Z" fill="#3A3A3A"/>
<path d="M6.04752 9.58655H0.299805V31.0317H6.04752V9.58655Z" fill="#3A3A3A"/>
<path fill-rule="evenodd" clip-rule="evenodd" d="M20.3921 9.23572C18.143 9.23572 16.2938 10.3881 15.2442 12.0917H15.1942L14.8943 9.63656H9.94629C9.99627 11.6909 10.0962 13.7452 10.0962 16.0501V31.0817H15.8439V17.904C15.8439 17.1023 15.9939 16.3507 16.1438 15.9498C16.4937 14.6972 17.2934 14.0458 18.243 14.0458C19.8923 14.0458 20.3422 15.7995 20.3422 17.6033V31.0316H26.0899V17.2526C26.0899 12.4926 24.4905 9.23572 20.3921 9.23572Z" fill="#3A3A3A"/>
<path fill-rule="evenodd" clip-rule="evenodd" d="M37.4354 19.2068C37.1355 21.1609 36.9356 23.0148 36.6357 25.1693H36.5857C36.2358 22.9647 35.936 21.0607 35.6361 19.2068L33.9867 9.58655H27.8892L33.7868 31.0317H39.0347L44.7825 9.58655H39.0847L37.4354 19.2068Z" fill="#3A3A3A"/>
<path fill-rule="evenodd" clip-rule="evenodd" d="M54.1786 9.23572C49.3805 9.23572 45.582 13.5448 45.582 20.76C45.582 27.4741 48.7808 31.3322 54.6784 31.3322C56.7776 31.3322 59.0267 30.9815 60.4761 30.3802L59.7264 26.2215C58.7268 26.5722 57.2274 26.973 55.628 26.973C53.179 26.973 51.2298 25.7705 51.1298 22.4636V22.4134C51.1298 22.4636 51.1298 22.4636 51.1298 22.4636H61.2258C61.2758 21.8122 61.3758 21.0105 61.3758 19.4572C61.4257 12.8934 58.7268 9.23572 54.1786 9.23572ZM51.1798 18.2547C51.2298 16.1503 52.0295 13.3444 53.8787 13.3444C55.5281 13.3444 56.2778 15.4488 56.2778 18.2547H51.1798Z" fill="#3A3A3A"/>
<path fill-rule="evenodd" clip-rule="evenodd" d="M71.7213 18.1044C69.7721 16.8517 69.2723 16.3507 69.2723 15.3987C69.2723 14.4467 69.922 13.5949 71.3714 13.5949C72.521 13.5949 73.5706 13.9456 74.3702 14.4467L75.3699 10.2378C74.2203 9.63656 72.8209 9.23572 71.0216 9.23572C66.7233 9.23572 63.9744 12.1418 63.9744 16C63.9744 17.9541 64.824 20.2088 68.3226 22.213C70.2219 23.3153 70.7717 24.0168 70.7717 25.1191C70.7717 26.3718 69.922 27.0231 68.4226 27.0231C66.9732 27.0231 65.3738 26.3718 64.5741 25.8707L63.6245 30.1798C64.5741 30.9314 66.6733 31.4324 68.5226 31.4324C72.9708 31.4324 76.0696 29.0274 76.0696 24.6682C76.0696 22.1629 74.8201 19.9583 71.7213 18.1044Z" fill="#3A3A3A"/>
<path fill-rule="evenodd" clip-rule="evenodd" d="M85.6658 3.97473L79.9181 5.77853V9.58654H77.3691V13.6952H79.9181V23.6662C79.9181 27.0232 80.5679 28.6266 81.7174 29.779C82.717 30.7811 84.1664 31.182 85.8658 31.182C87.3152 31.182 88.5647 31.0317 89.3644 30.8312L89.3144 26.3719C88.8146 26.422 88.3648 26.5222 87.765 26.5222C86.6655 26.5222 85.6658 25.8708 85.6658 23.3655V13.595H89.8642V9.53644H85.6658V3.97473Z" fill="#3A3A3A"/>
<path fill-rule="evenodd" clip-rule="evenodd" d="M228.559 12.7431H228.41L228.11 9.58646H223.162C223.212 11.5406 223.312 13.8955 223.312 15.9999H223.262V31.0316H229.009V20.1086C229.009 19.2568 229.159 18.5052 229.309 18.0042C229.959 15.7494 231.558 14.9477 232.808 14.9477C233.308 14.9477 233.657 14.9477 234.057 14.9978V9.38603C233.757 9.33593 233.408 9.23572 232.808 9.23572C231.258 9.23572 229.509 10.4884 228.559 12.7431Z" fill="#3A3A3A"/>
<path fill-rule="evenodd" clip-rule="evenodd" d="M251.85 24.4679H251.9V9.58655H246.152V23.3154C246.152 24.067 246.002 24.7184 245.802 25.1192C245.502 25.8708 244.953 26.5723 243.903 26.5723C242.354 26.5723 241.804 24.8186 241.804 21.9626V9.58655H236.056V22.5639C236.056 28.326 237.656 31.3824 241.754 31.3824C244.003 31.3824 245.752 30.23 246.752 28.7769H246.802L247.102 31.0317H252C251.95 28.9773 251.85 26.7226 251.85 24.4679Z" fill="#3A3A3A"/>
<path fill-rule="evenodd" clip-rule="evenodd" d="M112.655 9.23572C111.556 9.23572 110.556 9.53635 109.657 10.0374C108.857 10.5385 108.007 11.3401 107.457 12.1418H107.407C106.658 10.338 105.158 9.23572 102.759 9.23572C100.56 9.23572 98.7609 10.4884 97.6614 12.0917H97.6114L97.3115 9.63656H92.3135C92.3635 11.6909 92.4634 13.7452 92.4634 16.0501H92.6134V31.0817H98.3611V17.453C98.3611 16.8517 98.4111 16.2004 98.561 15.8496C98.9109 14.5469 99.8105 13.9456 100.66 13.9456C102.409 13.9456 102.559 15.8997 102.559 17.5031V30.9815H108.307V17.4029C108.307 16.8016 108.307 16.2505 108.457 15.8496C108.757 14.6972 109.557 13.9456 110.556 13.9456C112.206 13.9456 112.505 15.8997 112.505 18.3048V30.9815H118.203V17.4029C118.203 12.2921 116.504 9.23572 112.655 9.23572Z" fill="#CA1427"/>
<path fill-rule="evenodd" clip-rule="evenodd" d="M129.748 9.23572C125.45 9.23572 121.452 12.6429 121.452 20.4092C121.452 27.424 124.6 31.4324 129.698 31.4324C132.997 31.4324 137.945 29.2278 137.945 20.2589C137.895 13.4446 134.846 9.13551 129.748 9.23572ZM129.848 27.0232C127.799 27.0232 127.249 23.9667 127.249 20.2589C127.249 17.2526 127.699 13.5448 129.698 13.645C131.648 13.645 132.197 17.3528 132.197 20.2589C132.147 23.4657 131.748 27.0232 129.848 27.0232Z" fill="#CA1427"/>
<path fill-rule="evenodd" clip-rule="evenodd" d="M148.091 18.1044C146.142 16.8517 145.642 16.3507 145.642 15.3987C145.642 14.4467 146.292 13.5949 147.741 13.5949C148.891 13.5949 149.941 13.9456 150.74 14.4467L151.74 10.2378C150.59 9.63656 149.191 9.23572 147.392 9.23572C143.093 9.23572 140.344 12.1418 140.344 16C140.344 17.9541 141.194 20.2088 144.693 22.213C146.592 23.3153 147.192 24.0168 147.192 25.1191C147.192 26.3718 146.342 27.0231 144.843 27.0231C143.393 27.0231 141.794 26.3718 140.994 25.8707L140.044 30.1798C140.994 30.9314 143.093 31.4324 144.942 31.4324C149.391 31.4324 152.489 29.0274 152.489 24.6682C152.489 22.1629 151.24 19.9583 148.091 18.1044Z" fill="#CA1427"/>
<path fill-rule="evenodd" clip-rule="evenodd" d="M164.785 14.0459C165.734 14.0459 166.384 14.2463 166.884 14.3966L167.634 9.88715C167.134 9.58652 165.884 9.28589 164.485 9.28589C158.587 9.28589 154.639 13.8956 154.639 20.5095C154.639 27.4241 158.137 31.2321 163.585 31.2321C165.184 31.2321 166.634 30.9314 167.234 30.6308L166.784 26.1213C166.184 26.4219 165.484 26.5723 164.685 26.5723C161.986 26.5723 160.386 24.2173 160.386 20.3592C160.386 16.6514 161.986 14.0459 164.785 14.0459Z" fill="#CA1427"/>
<path fill-rule="evenodd" clip-rule="evenodd" d="M176.98 9.23572C172.682 9.23572 168.683 12.6429 168.683 20.4092C168.683 27.424 171.832 31.4324 176.93 31.4324C180.229 31.4324 185.177 29.2278 185.177 20.2589C185.127 13.4446 182.078 9.13551 176.98 9.23572ZM177.08 27.0232C175.031 27.0232 174.481 23.9667 174.481 20.2589C174.481 17.2526 174.931 13.5448 176.93 13.645C178.879 13.645 179.379 17.3528 179.379 20.2589C179.379 23.4657 178.929 27.0232 177.08 27.0232Z" fill="#CA1427"/>
<path fill-rule="evenodd" clip-rule="evenodd" d="M206.968 9.58655L205.668 18.7057C205.368 21.0607 205.068 23.3154 204.919 25.3197H204.869C204.569 23.2653 204.219 21.1609 203.719 18.7057L201.92 9.58655H197.421L195.522 18.9062C195.072 20.9605 194.673 23.2653 194.373 25.3197H194.223C194.073 23.2152 193.773 21.1108 193.473 18.7558L192.324 9.58655H186.126L191.374 31.0317H196.322L198.221 23.6161C198.671 21.5617 199.171 19.307 199.471 16.8518H199.521C199.821 19.3571 200.17 21.6119 200.62 23.566L202.22 31.0818H207.118L212.665 9.63665H206.968V9.58655Z" fill="#CA1427"/>
</svg>
